# xmcd
#
# Track frame offsets:
#  150
#  17140
#  32425
#  45063
#  61126
#  76899
#  90596
#  104857
#  118690
#  131998
#  147094
#  159823
#  172447
#  188468
#  220234
#
# Disc length: 3131 seconds
#
# Revision: 0
# Processed by: cddbd v1.5.1PL0 Copyright (c) Steve Scherf et al.
# Submitted via: AltoMP3_Maker 3.0
#
DISCID=c30c390f
DTITLE=KRIS MELODY - MTY-L.A.
DYEAR=1900
DGENRE=
TTITLE0=No me acordaré de ti
TTITLE1=Takka-Bum
TTITLE2=Ojalá
TTITLE3=Canción para dos (español)
TTITLE4=Quisiera
TTITLE5=Me voy a enamorar
TTITLE6=¿A quién le importa?
TTITLE7=Bum Bum
TTITLE8=Será
TTITLE9=No te preocupes por mí
TTITLE10=Eo-Eo
TTITLE11=Tara-tatata
TTITLE12=Canción para dos (Inglés)
TTITLE13=No me acordaré de ti (pop)
TTITLE14=Video
EXTD=
EXTT0=
EXTT1=
EXTT2=
EXTT3=
EXTT4=
EXTT5=
EXTT6=
EXTT7=
EXTT8=
EXTT9=
EXTT10=
EXTT11=
EXTT12=
EXTT13=
EXTT14=
PLAYORDER=
